# xmcd
#
# Track frame offsets: 
#        150
#        44828
#        65584
#        91594
#        106239
#        135680
#        157092
#        188039
#        215874
#        235989
#        256892
#        275835
#        302777
#        325800
#
# Disc length: 4745 seconds
#
# Revision: 1
# Processed by: cddbd v1.5.2PL0 Copyright (c) Steve Scherf et al.
# Submitted via: ExactAudioCopy v1.3
#
DISCID=d412870e
DTITLE=Hawkins, Coleman (1904-1969) - Coleman Hawkins 1958 Soul (1-7) 
DTITLE=1961  The Hawk Relaxes (8-14)
DYEAR=1958
DGENRE=Jazz
TTITLE0=Soul Blues
TTITLE1=I Hadn't Anyone Till You
TTITLE2=Groovin'
TTITLE3=Greensleeves
TTITLE4=Sunday Mornin'
TTITLE5=Until The Real Thing Comes Along
TTITLE6=Sweetnin'
TTITLE7=I'll Never Be The Same
TTITLE8=When Day Is Done
TTITLE9=Under The Blnket Of Blue
TTITLE10=More Than You Know
TTITLE11=Moonglow
TTITLE12=Just A Gigolo
TTITLE13=Speak Low
EXTD=YEAR: 1958
EXTT0=
EXTT1=
EXTT2=
EXTT3=
EXTT4=
EXTT5=
EXTT6=
EXTT7=
EXTT8=
EXTT9=
EXTT10=
EXTT11=
EXTT12=
EXTT13=
PLAYORDER=
